# xmcd CD database file
#
# Track frame offsets:
#	182
#	16257
#	34335
#	48877
#
# Disc length: 820 seconds
#
# Revision: 1
# Processed by: cddbd v1.5.2PL0 Copyright (c) Steve Scherf et al.
# Submitted via: CDex 1.51
#
DISCID=27033204
DTITLE=Frosted - Call Me Crazy
DYEAR=1996
DGENRE=Alternative Rock
TTITLE0=Call Me Crazy
TTITLE1=Call Me Crazy (acoustic)
TTITLE2=Silver of Glass
TTITLE3=Space Ghost 
EXTD=YEAR: 1996
EXTT0=
EXTT1=
EXTT2=
EXTT3=
PLAYORDER=
